<?xml version="1.0" encoding="UTF-8"?>
<svg id="Layer_1" data-name="Layer 1" xmlns="http://www.w3.org/2000/svg" viewBox="0 0 1080 1080">
  <defs>
    <style>
      .cls-1 {
        fill: none;
      }

      .cls-1, .cls-2, .cls-3 {
        stroke-width: 0px;
      }

      .cls-2 {
        fill: #fff;
      }

      .cls-3 {
        fill: #32534c;
      }
    </style>
  </defs>
  <path class="cls-3" d="m1080.13,539.88c0,74.58-15.11,145.62-42.45,210.24-47.38,112.01-131.47,204.69-237.18,262.99t-.02.02c-1.49.82-3,1.65-4.49,2.48-53.55,28.89-112.53,48.98-175.02,58.37h-.03c-26.39,3.98-53.42,6.03-80.93,6.03-2.36,0-4.72-.02-7.08-.04h-.01c-32.04-.42-63.4-3.62-93.87-9.38-26.02-4.92-51.39-11.7-75.95-20.22-26.14-9.06-51.38-20.06-75.52-32.86C116.46,926.88-.12,747-.12,539.88c0-74.58,15.11-145.62,42.45-210.24C124.31,135.77,316.27-.25,540-.25c74.58,0,145.62,15.11,210.24,42.45,193.86,81.99,329.89,273.95,329.89,497.68Z"/>
  <g>
    <path class="cls-1" d="m689.14,490.03c-7.11-4.98-14.34-9.31-23.29-9.96-23.06-1.78-42.26,8.42-63.43,19.86,8.77,1.96,15.41,3.97,22.23,4.8,7.47.83,11.86,4.03,14.34,11.38,3.32,9.42,10.67,15.41,20.51,17.43,11.86,2.43,23.47,1.6,34.2-4.62,3.32-1.96,5.99-2.13,9.6-.47,8.65,3.91,17.61,7.29,26.5,10.91.41-.59.89-1.13,1.3-1.72-11.44-18.08-24.12-35.03-41.97-47.6Z"/>
    <path class="cls-2" d="m863.88,949.76c-19.39,21.46-40.13,41.62-61.3,61.41-.69.65-1.4,1.29-2.09,1.93t-.02.02c-1.49.82-3,1.65-4.49,2.48-53.55,28.89-112.53,48.98-175.02,58.37h-.1c40.47-27.2,79.86-55.98,118.43-85.92,23.71-18.37,47.42-36.81,70.89-55.54,4.57-3.62,8.6-4.27,13.94-2.55,12.51,4.03,25.06,7.88,37.7,11.31,6.51,1.84,5.98,4.1,2.07,8.48Z"/>
    <path class="cls-2" d="m741.42,924.93c-13.93,12.09-27.75,24.24-41.68,36.22-51.47,44.15-106.48,83.16-164.27,118.01-.85.28-1.7.55-2.56.81h-.01c-32.04-.42-63.4-3.62-93.87-9.38-.02-.02-.04-.03-.06-.05-6.5-1.23-12.98-2.56-19.39-4.02,73.62-43.12,150.53-80.04,227.28-117.28,9.43-4.56,19.09-8.72,28.04-13.99,12.45-7.41,26.02-9.31,39.95-10.19,8.54-.54,17.01-1.25,25.54-1.9.36.59.65,1.19,1.01,1.78Z"/>
    <path class="cls-2" d="m657.37,323.7c-15.29-12.63-32.25-19.03-52.1-11.5-10.37,3.91-11.74,7.53-5.81,16.66,16.06,24.72,40.25,34.02,68.35,35.51,2.43,0,4.86.06,7.23-.06,8.42-.41,8.95-1.36,5.39-9.07-5.51-12.03-12.74-23-23.06-31.53Z"/>
    <path class="cls-2" d="m254.53,677.33c3.68.65,8.24,1.78,9.66-2.9,1.36-4.56-3.44-5.34-6.34-6.93-27.8-15.29-52.28-34.32-69.89-61.41-23.06-35.33-31.06-74.51-27.8-115.88,4.56-58.21,27.39-107.82,74.57-143.86,64.19-49.08,155.36-54,223.11-.59,19.03,15,35.68,32.36,51.92,50.27,3.14,3.44,5.69,5.51,10.85,2.96,24.3-11.8,49.67-20.03,76.82-21.99,2.01-.12,4.68.06,5.33-2.55.54-2.07-1.72-3.14-3.02-4.39-15.71-15.71-31.42-31.48-47.42-46.89-4.51-4.39-4.86-6.82,1.07-9.96,13.04-6.88,26.2-13.57,40.19-18.32,29.28-9.84,59.16-14.88,90.16-11.03,4.92.65,7.41,2.37,8.54,7.65,3.56,17.07,9.6,33.43,17.25,49.14,12.15,25.01,27.74,47.12,53.29,60.28,4.33,2.19,9.72,6.94,13.69,3.97,3.26-2.49,1.01-9.07.24-13.81-4.39-27.74-16.89-51.69-34.32-73.32-4.63-5.69-9.48-11.14-14.46-16.89,1.42-.65,2.01-1.13,2.37-1.01,1.72.71,3.38,1.48,5.04,2.31,25.79,12.98,48.55,30.35,71.19,48.01,5.87,4.56,9.55,8.71,9.07,16.95-.59,10.31,8.54,18.26,19.26,18.61,10.55.36,19.2-7.29,20.27-17.78.95-8.59-3.26-14.34-10.14-18.55-7.82-4.8-15.35-4.62-22.23,1.48-4.56,4.09-6.82,3.68-10.55-1.01-5.34-6.7-11.5-12.74-17.55-18.79-7.53-7.65-15.23-15.06-22.88-22.52,7.83.3,14.46,2.25,21.22,3.68,31.53,6.7,62.24,5.28,91.93-8.48,5.63-2.61,6.34-4.62,1.24-8.71-12.51-9.84-26.79-15.65-42.26-18.32-29.87-5.22-58.74-1.24-86.6,10.37-5.93,2.49-10.79,2.25-16.48-1.07-19.33-11.08-40.37-16.95-62.48-19.5-8.48-1.01-17.07-.83-25.67-2.31,12.74-7.59,26.38-12.57,38.59-20.33,26.62-16.89,49.97-36.81,64.14-65.85,3.08-6.22,1.6-8.06-5.04-7.71-15.41.89-30.29,4.33-44.4,10.37-41.73,18.02-74.69,46.59-100.12,84.11-2.07,3.08-3.55,7.05-7.05,8.54-12.45,5.39-25.02,10.43-37.58,15.59-.24-.47-.53-.89-.77-1.36,1.01-1.54,2.01-3.08,3.08-4.56,14.23-19.09,25.19-39.77,31.59-62.83,3.14-11.44,4.92-23.06,3.79-34.91-.95-10.61-1.78-11.03-10.67-5.51-13.22,8.12-23.59,19.32-32.72,31.65-17.55,23.53-26.85,50.44-31.12,79.19-.95,6.34-3.02,6.46-7.53,3.32-4.62-3.2-9.25-6.4-13.99-9.42-63.13-40.01-131.65-55.07-203.67-33.67-100.65,29.87-164.13,97.03-181.32,202.07-10.31,63.25,3.68,122.28,46.83,171.84,23.83,27.39,53.29,46.23,89.74,52.58Z"/>
    <path class="cls-2" d="m960.26,674.38c-2.07-4.04-4.62-5.4-9.72-4.51-19.26,3.26-37.28-1.3-53.81-11.26-5.34-3.2-12.4-7.59-8.01-15.17,4.39-7.53,11.2-3.62,17.01-.59,13.7,7.23,28.1,8.3,42.92,4.5,7.29-1.83,8.24-4.38,4.33-10.66-4.21-6.7-10.02-11.91-16.06-16.78-61.17-49.32-120.62-100.53-178.12-154-30.41-28.27-62.42-53.94-100.77-70.78-6.81-3.02-13.28-4.32-20.92-3.2-44.57,6.52-86.12,21.58-124.89,44.28-4.09,2.37-6.63,2.61-10.25-1.13-65.8-67.45-165.86-72.73-237.39-38.59-11.09,5.34-11.74,7.48-4.92,17.43,42.2,61.53,101.65,87.85,175.03,85.07,7.11-.3,14.88.53,23-4.15-40.95-44.16-97.27-58.51-149.67-81.8,1.96-.77,2.62-1.24,3.33-1.24,29.57-1.13,59.03-.18,87.6,8.36,46.65,14.04,83.58,40.48,105.45,85.35,3.03,6.22,2.49,9.19-5.03,11.26-32.25,8.95-64.92,14.47-98.41,12.63-8.18-.47-12.63,2.37-16.71,9.01-50.14,81.39-84.76,168.28-93.89,264.13-4.63,48.25-2.07,96.32,6.69,144.04,1.18,6.51,3.27,7.05,8.84,4.03,16.23-8.89,33.31-15.88,50.98-21.51,30.76-9.84,62.41-15.23,94.36-18.91,31.18-3.62,62.48-5.22,93.84-5.69,1.48-.06,3.32-.29,3.91,2.25-2.55.77-5.04,1.6-7.53,2.42-46.77,15.65-94.6,27.69-140.95,44.58-41.82,15.24-79.65,36.2-112.93,63.71,0,.02.03.03.04.05,24.14,12.8,49.37,23.8,75.52,32.86h.09c36.81-22.93,74.9-43.76,114.05-62.84,57.32-27.98,115.88-53.17,174.03-79.18,9.01-4.1,8.95-4.15,1.83-10.79-26.56-24.6-43.03-54.47-46.65-90.81-.65-6.22-3.08-9.25-8.42-12.04-39.77-20.68-72.25-48.66-90.69-90.81-14.52-33.13-15.76-67.21-9.19-103.32,2.97,2.97,3.09,5.63,3.68,8.13,16.12,66.5,59.51,105.15,127.38,113.51,27.81,3.44,55.73,2.25,83.58,2.55,19.03.24,37.99,1.31,56.79,4.81,3.02.59,6.75,1,2.9,5.27-14.87,16.3-17.78,36.22-16.41,57.02,1.24,20.21,8.12,37.94,26.91,49.85-3.02-16.59-3.55-32.31,3.68-49.37,5.45,16.84,9.96,31.89,19.44,44.81,11.32,15.46,25.96,24.71,38.83,23.59-5.93-7.48-9.61-15.77-11.91-24.6-6.05-23.77-6.99-46.83,10.49-66.86,7.11-8.07,14.76-13.52,27.21-11.2,14.87,2.67,29.93.41,44.15-5.51,6.23-2.62,12.22-5.87,15.18-13.11-31.96,1.42-55.9-12.86-77.12-33.49,6.16-.53,11.32,2.31,16.78,4.04,24.84,7.76,49.85,12.8,75.99,8.18,6.1-1.07,12.34-2.31,15.23-8.89,5.04-11.74,5.22-23.42-.65-34.91Zm-230.45-135.03c-8.9-3.62-17.85-6.99-26.51-10.9-3.61-1.66-6.28-1.48-9.6.47-10.73,6.22-22.35,7.05-34.2,4.62-9.84-2.01-17.19-8-20.51-17.43-2.49-7.35-6.87-10.55-14.34-11.38-6.81-.82-13.46-2.84-22.23-4.8,21.16-11.43,40.36-21.63,63.42-19.85,8.95.65,16.18,4.98,23.3,9.96,17.84,12.57,30.52,29.51,41.97,47.59-.42.6-.89,1.13-1.3,1.72Z"/>
  </g>
</svg>