<?xml version="1.0" encoding="UTF-8"?>
<svg id="Layer_1" data-name="Layer 1" xmlns="http://www.w3.org/2000/svg" viewBox="0 0 1080 1080">
  <defs>
    <style>
      .cls-1 {
        fill: #4e5050;
      }

      .cls-1, .cls-2, .cls-3, .cls-4 {
        stroke-width: 0px;
      }

      .cls-2 {
        fill: none;
      }

      .cls-3 {
        fill: #fff;
      }

      .cls-4 {
        fill: #32534c;
      }
    </style>
  </defs>
  <g>
    <path class="cls-1" d="m765.94,854.22c-52.36-8.19-40.92-73.71-40.33-112.38-1.34-9.78,20.74-6.44,27.1-6.94,5.5-1.42,4.23,12.83,4.14,15.28-.37,10.58-1.63,21.12-1.58,31.71.02,3.17.13,6.37.66,9.51.68,4.02,2.12,6.58,5.46,9.04,5.08,3.75,12.45,8.35,19.02,6.51,3.32-.93,5.68-3.57,7.27-6.52,4.45-8.27,4.9-18.75,5.43-27.92.55-9.61.28-19.37,1.59-28.92.1-.73.21-1.45.35-2.17,3.85-6.46,14.89-5.08,21.65-5.96,4.42.72,4.41,7.7,4.49,11,.18,7.83.42,15.62.71,23.44.19,5.09.2,10.19,0,15.28-.41,10.51-1.64,21.08-4.42,31.24-2.53,9.27-6.43,18.49-12.86,25.75-6.31,7.13-14.86,11.53-24.32,12.57-4.78.53-9.62.26-14.36-.5Z"/>
    <path class="cls-1" d="m181.49,741.64c.62.02,1.25.03,1.87.06,3.8.15,13.2-.69,12.2,5.37-.17,12.41-3,25.28-1.1,37.51,6.82,8.01,16.02-33.38,19.37-38.44,2.86-6.9,19.51-1.2,26.26-2.41,8.23.12,4.1,10.92,2.46,15.32-1.7,4.58-3.16,9.25-4.95,13.79-1.73,4.39-4.15,8.17-6.52,12.23-1.62,2.79-3.44,6.73-1.98,9.91.14,1.86,1.82,3.09,2.24,4.95.18.23.37.47.55.7,5.35,12.79,13.03,24.85,17.18,38.31,1.35,4.06-5.4,6.22-8.07,7.16-5.67,2-11.46,3.5-17.07,5.69-2.75,1.07-8.49,4.84-10.2.53-4.28-12.75-7.93-25.95-14.55-37.7-3.34-4.09-3.64,7.15-3.68,8.48-.12,3.64-.06,7.29.02,10.93.09,4.1.75,8.62.14,12.67-.77,5.13-6.27,5.83-10.55,5.78-5.81-.06-11.54.02-17.36.19-3.37.1-8.29-.48-8.03-4.93.17-2.84.77-5.65.94-8.51.2-3.43.25-6.86.55-10.29.54-6.11.85-12.18,1.15-18.3.47-9.66.3-19.33-.02-28.99-.31-9.3-.36-18.69-1.3-27.95-.24-2.4-.42-4.85-.21-7.26.31-3.52.8-5.28,4.71-5.06,5.31.3,10.62.14,15.93.27Z"/>
    <path class="cls-1" d="m558.17,740.87c4.61,0,11.87-1.46,13.38,4.53.72,2.85,2,5.65,2.9,8.46.92,2.89,1.78,5.81,2.59,8.73,1.59,5.76,3.03,11.57,4.27,17.42,1.23,5.74,2.08,11.56,3.45,17.27.93,3.91,1.91,7.81,2.87,11.71,2.89,11.78,7.18,24.89,6.33,37.15-.13,1.9-.68,3.66-2.55,4.5-.98.44-2.06.57-3.12.7-5.07.61-10.13,1.22-15.2,1.83-3.84.46-9.64,2.15-13.11-.35-2.35-1.69-2.61-5.26-2.91-7.88-.72-6.46-1.1-13.01-1.6-19.48-.11-1.39-.56-2.89-1.73-3.63-.75-.48-1.68-.57-2.56-.65-3.5-.31-7.02-.76-10.52-.97-2.44-.15-5.16.47-6.01,3.08-1.91,6.89-4.02,13.73-5.79,20.65-.62,2.4-1.07,6.14-3.75,7.18-1.34.52-2.92.43-4.32.39-7.15-.23-14.26-1.14-21.37-1.89-3.42-.36-3.5-2.73-3.35-5.67.09-1.75.4-3.46.65-5.19.78-5.36,2.02-10.65,3.33-15.9,1.63-6.56,3.44-13.07,5.3-19.56,1.95-6.79,3.98-13.56,6.03-20.32,1.83-6.06,3.69-12.11,5.49-18.17,1.3-4.35,2.61-8.71,3.71-13.12.33-1.34.46-2.77.83-4.09,1.25-4.43,1.48-4.65,5.99-4.86,10.19-.47,20.32-1.79,30.79-1.88Zm-14.03,25.53c-8.01-1.29-9.04,8.2-9.49,13.97-.28,3.63-.26,7.26-1.09,10.83-.14.61-.3,1.25-.2,1.87.76,4.55,12.71.65,15.02-.44.96-.45,1.92-.99,2.57-1.83,1.28-1.65.22-3.5-.01-5.3-.19-1.5-.32-3.01-.48-4.52-.33-3.32-.64-6.7-1.59-9.91-.63-2.13-1.93-5.38-4.74-4.67Z"/>
    <path class="cls-1" d="m872.2,852.77c-5,.63-38.75,3.27-36.24-4.2-.49-34.09.41-68.18,1.19-102.25-.79-11.23,54.5-11.07,62.76-7.43,9.8,3.07,16.51,10.99,19.03,20.81,2.56,9.98,1.24,20.9-2.47,30.42-1.61,4.12-3.71,8.07-6.37,11.61-6.16,8.21-16.97,12.62-26.94,13.63-4.41.45-10.49,1.01-9.93,6.94-.92,10.15.24,20.35-1.04,30.49Zm-6.17-84.9c.04,4.85.97,9.69,1.63,14.48.37,2.63,1.14,8.18,4.88,7.91,6.07-1.17,10.89-3.6,13.8-9.7,2.57-4.75,2.17-10.09-1.69-13.99-3.96-4.02-11.05-7.08-16.71-5.64-.42.11-.85.25-1.13.57-.28.32-.36.77-.43,1.19-.26,1.73-.36,3.45-.35,5.18Z"/>
    <path class="cls-1" d="m269.65,749.02c2.14-6.82,8.19-9.07,14.81-9.24,3.23-.08,6.44.3,9.67.34,5.07.06,10.13-.59,15.21-.46,5.11.13,7.4,2.26,8.73,7.04,6.58,23.66,14.98,46.82,22.27,70.26.48,1.55.96,3.09,1.44,4.64,2.07,6.69,4.02,13.41,6.08,20.09,1.09,3.54.42,4.59-3.26,5.17-4.07.64-8.33.64-12.44,1.1-3.06.34-6.11.74-9.17,1.11-3.21.39-7.3,1.3-10.43.05-2.61-1.04-3.33-3.98-3.78-6.48-1.04-5.73-1.07-11.6-1.8-17.36-.17-1.32-.07-2.7-.47-3.99-.34-1.09-1.08-2.12-2.15-2.53-1.74-.66-3.9.26-5.72.18-1.65-.08-3.31-.14-4.96-.16-2.45-.02-6.25.05-6.94,3.05-.5,6.97-1.13,13.93-1.65,20.89-.44,5.8-1.14,6.79-7.06,7.06-6.36-1.18-27.91,4.84-25.48-5.85,4.16-31.96,7.41-64.01,17.11-94.9Zm33.53,22.88c-1.27-4.01-3.31-7.62-7.14-7.4-3.56.2-6.41,2.54-7.42,5.88-2.16,7.13-4.02,15.46-3.8,22.94.06,1.87.26,2.88,2.36,2.91,5.33.08,10.67-.33,15.92-1.24,7.28-1.25,3.35-10.34,2.16-14.63-.56-2.01-1.09-5.36-2.08-8.47Z"/>
    <path class="cls-1" d="m694.84,853.21c-29.68,2.15-53.07-7.63-60.61-38.16-4.58-34.41,6.69-70.94,45.27-76.9,36.41-4.38,31.21-5.35,28.08,29.58.18,2.91-2.68,3.98-5.06,4.46-3.95.79-8.07.71-12.07.92-4.97.26-10.07.56-14.6,2.87-5.77,2.94-8.9,8.64-8.28,15.07.39,4.04,1.95,7.99,4.31,11.29,1.11,1.55,2.41,2.97,3.91,4.16.72.57,1.48,1.09,2.29,1.53.75.42,1.77.61,2.46,1.08,3.36,2.26,7.42,2.98,11.39,3.28,4.39.33,8.79.61,13.19.44.38-.01.79-.03,1.13.15.27.14.47.38.65.63,3.86,5.26,2.86,14.19,1.88,20.19-.98,5.97-2.83,13.44-7.66,17.55-2.07,1.76-3.76,1.7-6.27,1.88Z"/>
    <path class="cls-1" d="m464.73,743.04c6.29-.2,12.59-.41,18.88-.56,3.15-.07,6.29-.13,9.44-.15,2.21-.02,4.75.32,5.89,2.5.84,1.61.82,3.63.75,5.4-.12,3.28-.64,6.55-1.14,9.78-.25,1.56-.5,3.12-.77,4.68-.77,4.23-.8,4.25-5,4.52-8.87.58-17.75.57-26.63.58-5.51.01-6.2.75-5.89,6.3,1.09,3.17-1.76,13.43,4.16,13.04,27.71-1.83,24.92-5.99,21.57,22.52-1.04,9.8-22.43-2.18-22.23,6.91,3.89,35.84,3.76,29.72-30.73,31.53-3.26.01-3.61-.8-3.32-4.01,2.87-31.07,1.28-62.29.48-93.41.16-3.65-1.47-9.94,4.11-9.48,5.23-.03,10.46-.03,15.68-.03,2.58,0,5.16,0,7.75,0,2.33,0,4.66-.06,6.99-.13Z"/>
    <path class="cls-1" d="m355.87,743.62c.18-.09.38-.17.61-.21,5.58-1.2,11.43-.55,17.09-.49,9.17.09,18.58.13,27.84.08,4.7-.02,9.45-.32,14.14-.13,2.91.11,6.14,1.11,6.21,4.55-1.73,6.21,1.9,20.43-6.06,21.93-9.63.65-19.27.62-28.9.31-2.81-.09-3.82.33-3.64,3.4.21,3.47-.37,6.91-.2,10.36.13,2.58.73,4.21,3.27,4.93,5.15,1.47,24.42-2.52,23.45,4.79-1.57,19.97,3.8,24.77-20.23,21.98-2.51-.13-3.44.66-3.29,3.15.74,36.91,10.54,30.85-28.24,32.22-2.3.04-3.29-.57-3.59-3.08-1.16-13.5-1.04-27.14-.98-40.67.06-14.73.33-29.45.71-44.17.1-4.06.22-8.11.34-12.17.06-2.05-.53-5.72,1.49-6.76Z"/>
  </g>
  <g>
    <path class="cls-4" d="m644.91,648.7c-18.54-4.12-37.09,0-55.63-2.06-59.75-4.12-119.51-12.36-179.26-12.36-7.75,0-15.5-1.82-23.25-3.75-.98-.25-1.96-.56-2.89-.95-8.93-3.8-16.32-9.13-23.61-14.58-1.17-.88-2.25-1.88-3.2-3-11.72-13.87-21.39-27.89-25.35-45.71-4.07-20.35-2.11-38.68-2.06-56.99,0-.47.02-.93.06-1.39l12.31-153.84c2.06-20.6,0-39.15,2.06-59.75,4.12-28.85,26.79-51.51,53.57-61.81,35.03-12.36,70.05-6.18,105.08-4.12,57.48,4.11,114.95,12.3,172.43,12.36.43,0,.86.01,1.29.04,38.84,2.41,69.43,37.27,73.53,76.2,2.06,30.91,0,61.81-2.06,92.72-5.95,53.55-9.99,109-12.12,162.69-.17,4.35-.8,8.67-1.93,12.87-1.42,5.3-3.07,10.59-5.49,15.89-.59,1.3-1.4,2.48-2.26,3.63-.42.57-.84,1.21-1.26,1.89-3.33,5.44-7.58,10.25-12.22,14.62-1.66,1.56-3.28,3.25-4.73,5.14-.99,1.29-2.18,2.44-3.5,3.4-17.94,13.03-37.78,16.9-59.51,18.87h0Z"/>
    <g>
      <path class="cls-2" d="m593.67,410.24c-2.8-1.96-5.64-3.66-9.16-3.92-9.07-.7-16.62,3.31-24.95,7.81,3.45.77,6.06,1.56,8.74,1.89,2.94.33,4.66,1.59,5.64,4.48,1.31,3.71,4.2,6.06,8.07,6.85,4.66.96,9.23.63,13.45-1.82,1.3-.77,2.35-.84,3.78-.19,3.4,1.54,6.92,2.87,10.42,4.29.16-.23.35-.44.51-.68-4.5-7.11-9.49-13.78-16.51-18.72Z"/>
      <path class="cls-3" d="m681.77,628.4c4.64-5.01,9.35-10.02,12.85-15.97.84-1.4,1.56-2.82-.21-4.13-4.06-3.03-8.04-6.13-12.12-9.14-1.84-1.35-3.43-1.21-4.73.93-.86,1.42-1.94,2.73-3.03,4.01-13.32,15.53-27.83,29.74-43.38,42.83,4.59.23,9.18.74,13.77,1.76,6.4-.58,12.62-1.34,18.69-2.43,6.33-5.65,12.38-11.6,18.17-17.87Z"/>
      <path class="cls-3" d="m662.4,591.06c1.54-1.73,1.75-2.61-.82-3.33-4.97-1.35-9.91-2.87-14.83-4.45-2.1-.68-3.68-.42-5.48,1-9.23,7.37-18.56,14.62-27.88,21.84-17.29,13.42-34.99,26.25-53.27,38.24,9.72.84,19.44,1.62,29.16,2.29,3.77.42,7.54.58,11.3.6,13.08-10.05,25.63-20.76,37.71-32.04,8.32-7.79,16.48-15.71,24.11-24.15Z"/>
      <path class="cls-3" d="m603.79,581.33c-5.48.35-10.82,1.1-15.71,4.01-3.52,2.07-7.32,3.71-11.03,5.5-30.68,14.89-61.43,29.64-90.82,46.96,15.67,1.25,31.34,2.7,47,4.14,22.73-13.71,44.37-29.05,64.61-46.42,5.48-4.71,10.91-9.49,16.39-14.24-.14-.23-.26-.47-.4-.7-3.36.26-6.69.54-10.05.75Z"/>
      <path class="cls-3" d="m581.17,344.82c-6.02-4.97-12.68-7.48-20.49-4.52-4.08,1.54-4.62,2.96-2.28,6.55,6.32,9.72,15.83,13.38,26.88,13.96.96,0,1.91.02,2.84-.02,3.31-.16,3.52-.54,2.12-3.57-2.17-4.73-5.01-9.05-9.07-12.4Z"/>
      <path class="cls-3" d="m426.53,482.76c.54-1.8-1.35-2.1-2.49-2.73-10.93-6.02-20.56-13.5-27.49-24.15-9.07-13.89-12.22-29.3-10.93-45.58,1.8-22.89,10.77-42.41,29.33-56.58,25.25-19.3,61.1-21.24,87.75-.23,7.48,5.9,14.03,12.73,20.42,19.77,1.24,1.35,2.24,2.17,4.27,1.17,9.56-4.64,19.54-7.88,30.21-8.65.79-.05,1.84.02,2.1-1,.21-.82-.68-1.24-1.19-1.73-6.18-6.18-12.36-12.38-18.65-18.44-1.77-1.73-1.91-2.68.42-3.92,5.13-2.7,10.31-5.34,15.81-7.2,11.52-3.87,23.27-5.85,35.46-4.34,1.94.26,2.91.93,3.36,3.01,1.4,6.71,3.78,13.15,6.78,19.33,4.78,9.84,10.91,18.53,20.96,23.71,1.7.86,3.82,2.73,5.39,1.56,1.28-.98.4-3.57.09-5.43-1.73-10.91-6.64-20.33-13.5-28.84-1.82-2.24-3.73-4.38-5.69-6.64.56-.26.79-.44.93-.4.68.28,1.33.58,1.98.91,10.14,5.11,19.09,11.94,28,18.88,2.31,1.8,3.75,3.43,3.57,6.67-.23,4.06,3.36,7.18,7.58,7.32,4.15.14,7.55-2.87,7.97-6.99.37-3.38-1.28-5.64-3.99-7.3-3.08-1.89-6.04-1.82-8.74.58-1.8,1.61-2.68,1.45-4.15-.4-2.1-2.63-4.52-5.01-6.9-7.39-2.96-3.01-5.99-5.92-9-8.86,3.08.12,5.69.89,8.35,1.45,12.4,2.63,24.48,2.07,36.16-3.33,2.22-1.03,2.5-1.82.49-3.43-4.92-3.87-10.54-6.15-16.62-7.2-11.75-2.05-23.1-.49-34.06,4.08-2.33.98-4.24.89-6.48-.42-7.6-4.36-15.88-6.67-24.57-7.67-3.33-.4-6.72-.33-10.09-.91,5.01-2.98,10.37-4.94,15.18-8,10.47-6.64,19.65-14.48,25.23-25.9,1.21-2.45.63-3.17-1.98-3.03-6.06.35-11.91,1.7-17.46,4.08-16.41,7.09-29.38,18.32-39.38,33.08-.82,1.21-1.4,2.77-2.77,3.36-4.9,2.12-9.84,4.1-14.78,6.13-.09-.19-.21-.35-.3-.54.4-.61.79-1.21,1.21-1.8,5.59-7.51,9.91-15.64,12.43-24.71,1.24-4.5,1.94-9.07,1.49-13.73-.37-4.17-.7-4.34-4.2-2.17-5.2,3.19-9.28,7.6-12.87,12.45-6.9,9.26-10.56,19.84-12.24,31.15-.37,2.49-1.19,2.54-2.96,1.31-1.82-1.26-3.64-2.52-5.5-3.71-24.83-15.74-51.78-21.66-80.1-13.24-39.59,11.75-64.56,38.16-71.32,79.48-4.06,24.88,1.45,48.1,18.42,67.59,9.37,10.77,20.96,18.18,35.3,20.68,1.45.26,3.24.7,3.8-1.14Z"/>
      <path class="cls-3" d="m696.48,480.97c-7.58,1.28-14.66-.51-21.17-4.43-2.1-1.26-4.87-2.98-3.15-5.97,1.72-2.96,4.41-1.42,6.69-.23,5.39,2.84,11.05,3.26,16.88,1.77,2.87-.72,3.24-1.73,1.7-4.2-1.66-2.63-3.94-4.69-6.32-6.6-24.06-19.4-47.44-39.54-70.06-60.57-11.96-11.12-24.55-21.22-39.63-27.84-2.68-1.19-5.22-1.7-8.23-1.26-17.53,2.56-33.87,8.49-49.12,17.42-1.61.93-2.61,1.03-4.03-.44-25.88-26.53-65.23-28.61-93.37-15.18-4.36,2.1-4.62,2.94-1.94,6.85,16.6,24.2,39.98,34.55,68.85,33.46,2.8-.12,5.85.21,9.05-1.63-16.11-17.37-38.26-23.01-58.87-32.17.77-.3,1.03-.49,1.31-.49,11.63-.44,23.22-.07,34.46,3.29,18.35,5.53,32.87,15.92,41.47,33.57,1.19,2.45.98,3.61-1.98,4.43-12.68,3.52-25.53,5.69-38.7,4.97-3.22-.19-4.97.93-6.58,3.54-19.72,32.01-33.34,66.19-36.93,103.89-1.82,18.98-.82,37.88,2.63,56.65.47,2.56,1.28,2.77,3.47,1.59,6.39-3.5,13.1-6.25,20.05-8.46,12.1-3.87,24.55-5.99,37.11-7.44,12.26-1.42,24.57-2.05,36.91-2.24.58-.02,1.3-.12,1.54.89-1,.3-1.98.63-2.96.96-18.39,6.15-37.21,10.89-55.44,17.53-24.04,8.76-44.74,22.32-61.39,41.74,12.87.17,25.74.68,38.61,1.43,16.96-11.09,34.68-20.97,52.97-29.88,22.55-11,45.58-20.91,68.45-31.15,3.54-1.61,3.52-1.63.72-4.24-10.44-9.68-16.93-21.43-18.35-35.72-.26-2.45-1.21-3.64-3.31-4.73-15.64-8.14-28.42-19.14-35.67-35.72-5.71-13.03-6.2-26.44-3.61-40.64,1.17,1.17,1.21,2.21,1.45,3.19,6.34,26.16,23.41,41.36,50.1,44.65,10.93,1.35,21.91.89,32.87,1,7.48.09,14.94.51,22.33,1.89,1.19.23,2.66.4,1.14,2.07-5.85,6.41-6.99,14.24-6.46,22.43.49,7.95,3.19,14.92,10.58,19.61-1.19-6.53-1.4-12.71,1.45-19.42,2.14,6.62,3.92,12.54,7.65,17.63,4.45,6.08,10.21,9.72,15.27,9.28-2.33-2.94-3.78-6.2-4.69-9.68-2.38-9.35-2.75-18.42,4.13-26.3,2.8-3.17,5.81-5.32,10.7-4.41,5.85,1.05,11.77.16,17.37-2.17,2.45-1.03,4.8-2.31,5.97-5.15-12.57.56-21.99-5.06-30.33-13.17,2.42-.21,4.45.91,6.6,1.59,9.77,3.05,19.61,5.04,29.89,3.22,2.4-.42,4.85-.91,5.99-3.5,1.98-4.62,2.05-9.21-.26-13.73-.82-1.59-1.82-2.12-3.82-1.77Zm-86.82-51.34c-3.5-1.42-7.02-2.75-10.42-4.29-1.42-.65-2.47-.58-3.78.19-4.22,2.45-8.79,2.77-13.45,1.82-3.87-.79-6.76-3.15-8.07-6.85-.98-2.89-2.7-4.15-5.64-4.48-2.68-.33-5.29-1.12-8.74-1.89,8.32-4.5,15.88-8.51,24.95-7.81,3.52.26,6.36,1.96,9.16,3.92,7.02,4.94,12.01,11.61,16.51,18.72-.16.23-.35.44-.51.68Z"/>
    </g>
  </g>
</svg>