<?xml version="1.0" encoding="UTF-8"?>
<svg id="Layer_1" data-name="Layer 1" xmlns="http://www.w3.org/2000/svg" viewBox="0 0 1080 1080">
  <defs>
    <style>
      .cls-1 {
        fill: #4e5050;
      }

      .cls-1, .cls-2, .cls-3, .cls-4 {
        stroke-width: 0px;
      }

      .cls-2 {
        fill: none;
      }

      .cls-3 {
        fill: #fff;
      }

      .cls-4 {
        fill: #32534c;
      }
    </style>
  </defs>
  <g>
    <path class="cls-1" d="m840.81,598.07c-43.95-6.87-34.35-61.87-33.85-94.32-1.12-8.21,17.41-5.4,22.75-5.83,4.62-1.19,3.55,10.77,3.48,12.83-.31,8.88-1.37,17.73-1.32,26.62.01,2.66.11,5.35.55,7.98.57,3.37,1.78,5.52,4.58,7.59,4.27,3.15,10.45,7.01,15.96,5.46,2.79-.78,4.77-3,6.1-5.47,3.74-6.94,4.12-15.73,4.56-23.43s.23-16.26,1.33-24.28c.08-.61.18-1.22.29-1.83,3.24-5.42,12.5-4.26,18.17-5.01,3.71.61,3.7,6.46,3.77,9.23.15,6.57.35,13.11.6,19.67.16,4.27.17,8.55,0,12.82-.34,8.82-1.38,17.69-3.71,26.22-2.13,7.78-5.39,15.51-10.79,21.61-5.3,5.98-12.47,9.68-20.41,10.55-4.01.44-8.08.22-12.06-.42Z"/>
    <path class="cls-1" d="m350.26,503.57c.52.01,1.05.03,1.57.05,3.19.12,11.08-.58,10.24,4.5-.14,10.42-2.52,21.22-.92,31.48,5.72,6.72,13.44-28.01,16.26-32.26,2.4-5.79,16.38-1.01,22.04-2.03,6.91.1,3.44,9.17,2.07,12.86-1.43,3.84-2.66,7.76-4.16,11.58-1.45,3.69-3.48,6.86-5.47,10.26-1.36,2.34-2.89,5.65-1.66,8.32.12,1.56,1.52,2.59,1.88,4.16.16.2.31.39.46.59,4.49,10.74,10.93,20.86,14.42,32.16,1.14,3.41-4.53,5.22-6.77,6.01-4.76,1.68-9.62,2.94-14.33,4.78-2.3.9-7.13,4.06-8.56.44-3.59-10.7-6.65-21.78-12.21-31.64-2.8-3.43-3.05,6-3.09,7.12-.1,3.06-.05,6.12.02,9.17.08,3.44.63,7.24.12,10.63-.65,4.31-5.26,4.89-8.86,4.85-4.87-.05-9.69.02-14.57.16-2.83.08-6.95-.4-6.74-4.13.14-2.38.65-4.75.79-7.14.17-2.88.21-5.76.46-8.63.46-5.13.71-10.23.96-15.36.39-8.11.25-16.23-.02-24.33-.26-7.8-.3-15.69-1.09-23.46-.2-2.01-.35-4.07-.18-6.09.26-2.96.67-4.43,3.95-4.25,4.45.25,8.92.12,13.37.22Z"/>
    <path class="cls-1" d="m666.42,502.93c3.87,0,9.97-1.23,11.23,3.8.6,2.39,1.68,4.74,2.43,7.1.77,2.43,1.49,4.87,2.17,7.33,1.34,4.84,2.54,9.71,3.59,14.62,1.03,4.82,1.74,9.7,2.89,14.5.78,3.28,1.6,6.55,2.4,9.83,2.42,9.89,6.03,20.89,5.31,31.18-.11,1.6-.57,3.08-2.14,3.78-.82.37-1.73.48-2.62.59-4.25.51-8.5,1.03-12.76,1.54-3.22.39-8.09,1.8-11-.29-1.98-1.42-2.19-4.41-2.44-6.61-.6-5.42-.92-10.92-1.34-16.35-.09-1.17-.47-2.42-1.45-3.05-.63-.4-1.41-.48-2.15-.54-2.94-.26-5.89-.64-8.83-.81-2.05-.12-4.33.39-5.05,2.58-1.6,5.78-3.37,11.52-4.86,17.33-.52,2.02-.9,5.15-3.14,6.03-1.12.44-2.45.36-3.63.33-6-.19-11.97-.96-17.94-1.58-2.87-.3-2.94-2.29-2.81-4.76.08-1.47.33-2.9.55-4.35.66-4.5,1.7-8.94,2.79-13.35,1.37-5.5,2.88-10.97,4.45-16.42,1.64-5.7,3.34-11.38,5.06-17.05,1.54-5.08,3.09-10.16,4.61-15.25,1.09-3.65,2.19-7.31,3.11-11.01.28-1.12.38-2.33.7-3.43,1.05-3.72,1.24-3.9,5.02-4.08,8.55-.39,17.06-1.5,25.84-1.58Zm-11.77,21.43c-6.72-1.09-7.58,6.88-7.96,11.72-.24,3.05-.22,6.09-.91,9.09-.12.52-.26,1.05-.17,1.57.64,3.82,10.66.54,12.6-.37.81-.38,1.61-.83,2.15-1.53,1.07-1.39.18-2.94,0-4.45-.16-1.26-.27-2.53-.4-3.79-.28-2.78-.54-5.63-1.33-8.32-.52-1.79-1.62-4.51-3.97-3.92Z"/>
    <path class="cls-1" d="m930,596.85c-4.19.53-32.52,2.75-30.41-3.53-.41-28.62.35-57.22,1-85.82-.66-9.43,45.75-9.29,52.68-6.24,8.22,2.58,13.86,9.22,15.97,17.46,2.15,8.38,1.04,17.54-2.07,25.53-1.35,3.46-3.11,6.77-5.35,9.74-5.17,6.89-14.24,10.59-22.61,11.44-3.71.38-8.81.85-8.34,5.82-.77,8.52.2,17.08-.87,25.59Zm-5.18-71.26c.03,4.07.81,8.14,1.37,12.15.31,2.21.96,6.86,4.09,6.64,5.09-.98,9.14-3.02,11.58-8.14,2.16-3.98,1.82-8.47-1.42-11.74-3.33-3.37-9.28-5.94-14.03-4.73-.35.09-.71.21-.95.48-.24.27-.31.64-.36,1-.22,1.45-.3,2.9-.29,4.35Z"/>
    <path class="cls-1" d="m424.26,509.77c1.8-5.72,6.87-7.61,12.43-7.75,2.71-.07,5.41.25,8.12.29,4.26.05,8.5-.5,12.77-.39,4.29.11,6.21,1.9,7.33,5.91,5.52,19.86,12.57,39.29,18.69,58.97.4,1.3.81,2.6,1.21,3.89,1.73,5.61,3.37,11.25,5.1,16.86.91,2.97.36,3.85-2.73,4.34-3.42.54-6.99.54-10.44.92-2.57.29-5.13.62-7.7.93-2.69.33-6.13,1.09-8.76.04-2.19-.87-2.79-3.34-3.17-5.44-.87-4.81-.89-9.73-1.51-14.57-.14-1.11-.06-2.26-.39-3.35-.29-.92-.91-1.78-1.81-2.12-1.46-.55-3.28.22-4.8.15-1.38-.07-2.78-.12-4.16-.13-2.06-.02-5.24.05-5.82,2.56-.42,5.85-.95,11.69-1.39,17.53-.37,4.87-.96,5.7-5.93,5.92-5.34-.99-23.43,4.06-21.39-4.91,3.49-26.83,6.22-53.72,14.36-79.66Zm28.14,19.2c-1.07-3.37-2.78-6.39-5.99-6.21-2.99.17-5.38,2.13-6.23,4.93-1.81,5.98-3.38,12.98-3.19,19.26.05,1.57.22,2.42,1.98,2.44,4.47.07,8.95-.28,13.36-1.04,6.11-1.05,2.81-8.68,1.81-12.28-.47-1.68-.91-4.5-1.74-7.11Z"/>
    <path class="cls-1" d="m781.13,597.21c-24.91,1.81-44.55-6.4-50.88-32.03-3.85-28.88,5.61-59.54,37.99-64.54,30.56-3.67,26.19-4.49,23.57,24.82.15,2.44-2.25,3.34-4.25,3.75-3.31.67-6.77.59-10.13.77-4.17.22-8.45.47-12.25,2.41-4.85,2.47-7.47,7.25-6.95,12.65.33,3.39,1.64,6.71,3.62,9.47.93,1.3,2.02,2.49,3.28,3.49.6.48,1.24.91,1.92,1.29.63.35,1.49.51,2.07.9,2.82,1.9,6.23,2.5,9.56,2.75,3.68.28,7.38.51,11.07.37.32-.01.66-.02.95.12.23.12.4.32.55.53,3.24,4.41,2.4,11.91,1.57,16.94-.82,5.01-2.37,11.28-6.43,14.73-1.74,1.48-3.16,1.43-5.26,1.58Z"/>
    <path class="cls-1" d="m588,504.75c5.28-.17,10.56-.35,15.85-.47,2.64-.06,5.28-.11,7.92-.13,1.85-.02,3.99.27,4.95,2.1.71,1.35.69,3.05.63,4.53-.1,2.75-.53,5.49-.96,8.21-.21,1.31-.42,2.62-.64,3.93-.65,3.55-.67,3.56-4.2,3.8-7.44.49-14.89.47-22.35.49-4.63.01-5.21.63-4.95,5.29.92,2.66-1.47,11.28,3.49,10.95,23.26-1.54,20.92-5.03,18.11,18.9-.87,8.23-18.83-1.83-18.66,5.8,3.27,30.08,3.15,24.94-25.79,26.47-2.74.01-3.03-.67-2.79-3.37,2.41-26.08,1.07-52.28.4-78.4.13-3.06-1.23-8.34,3.45-7.96,4.39-.02,8.78-.03,13.16-.03,2.17,0,4.33,0,6.5,0,1.96,0,3.91-.05,5.87-.11Z"/>
    <path class="cls-1" d="m496.63,505.23c.15-.08.32-.14.51-.18,4.68-1.01,9.59-.46,14.34-.41,7.69.08,15.59.11,23.36.07,3.94-.02,7.93-.27,11.87-.11,2.44.1,5.15.93,5.21,3.82-1.45,5.21,1.59,17.15-5.09,18.41-8.08.54-16.17.52-24.26.26-2.36-.08-3.21.28-3.05,2.85.18,2.91-.31,5.8-.17,8.69.11,2.17.61,3.53,2.74,4.14,4.32,1.23,20.5-2.11,19.69,4.02-1.31,16.76,3.19,20.79-16.98,18.45-2.11-.11-2.89.55-2.76,2.64.62,30.98,8.84,25.89-23.71,27.04-1.93.03-2.76-.48-3.01-2.58-.97-11.33-.87-22.78-.83-34.14.05-12.36.28-24.72.6-37.08.09-3.4.18-6.81.29-10.21.05-1.72-.44-4.8,1.25-5.68Z"/>
  </g>
  <g>
    <path class="cls-4" d="m242.69,629.02c-7.79-1.73-15.59,0-23.38-.87-25.11-1.73-50.22-5.2-75.33-5.2-3.26,0-6.51-.77-9.77-1.58-.41-.1-.82-.23-1.22-.4-3.75-1.6-6.86-3.84-9.92-6.13-.49-.37-.95-.79-1.34-1.26-4.93-5.83-8.99-11.72-10.65-19.21-1.71-8.55-.89-16.26-.87-23.95,0-.2,0-.39.02-.59l5.17-64.65c.87-8.66,0-16.45.87-25.11,1.73-12.12,11.26-21.65,22.51-25.98,14.72-5.2,29.44-2.6,44.16-1.73,24.15,1.73,48.3,5.17,72.46,5.19.18,0,.36,0,.54.02,16.32,1.01,29.18,15.66,30.9,32.02.87,12.99,0,25.98-.87,38.96-2.5,22.5-4.2,45.8-5.09,68.37-.07,1.83-.34,3.64-.81,5.41-.6,2.23-1.29,4.45-2.31,6.68-.25.55-.59,1.04-.95,1.53-.18.24-.35.51-.53.8-1.4,2.29-3.18,4.31-5.14,6.14-.7.66-1.38,1.37-1.99,2.16-.42.54-.92,1.03-1.47,1.43-7.54,5.47-15.88,7.1-25.01,7.93h0Z"/>
    <g>
      <path class="cls-2" d="m221.16,528.82c-1.18-.82-2.37-1.54-3.85-1.65-3.81-.29-6.99,1.39-10.48,3.28,1.45.32,2.55.66,3.67.79,1.23.14,1.96.67,2.37,1.88.55,1.56,1.76,2.55,3.39,2.88,1.96.4,3.88.26,5.65-.76.55-.32.99-.35,1.59-.08,1.43.65,2.91,1.2,4.38,1.8.07-.1.15-.19.22-.28-1.89-2.99-3.99-5.79-6.94-7.87Z"/>
      <path class="cls-3" d="m258.18,620.49c1.95-2.11,3.93-4.21,5.4-6.71.35-.59.66-1.19-.09-1.73-1.7-1.27-3.38-2.58-5.09-3.84-.77-.57-1.44-.51-1.99.39-.36.6-.81,1.15-1.27,1.69-5.6,6.53-11.7,12.5-18.23,18,1.93.1,3.86.31,5.79.74,2.69-.24,5.3-.56,7.85-1.02,2.66-2.37,5.2-4.88,7.63-7.51Z"/>
      <path class="cls-3" d="m250.04,604.8c.65-.72.73-1.1-.34-1.4-2.09-.57-4.16-1.21-6.23-1.87-.88-.28-1.55-.18-2.3.42-3.88,3.1-7.8,6.14-11.72,9.18-7.26,5.64-14.7,11.03-22.38,16.07,4.08.35,8.17.68,12.25.96,1.58.18,3.17.24,4.75.25,5.5-4.22,10.77-8.72,15.84-13.46,3.5-3.27,6.93-6.6,10.13-10.15Z"/>
      <path class="cls-3" d="m225.41,600.71c-2.3.15-4.55.46-6.6,1.69-1.48.87-3.08,1.56-4.63,2.31-12.89,6.26-25.81,12.46-38.16,19.73,6.58.53,13.17,1.14,19.75,1.74,9.55-5.76,18.64-12.21,27.15-19.5,2.3-1.98,4.59-3.99,6.89-5.99-.06-.1-.11-.2-.17-.29-1.41.11-2.81.23-4.22.31Z"/>
      <path class="cls-3" d="m215.9,501.33c-2.53-2.09-5.33-3.14-8.61-1.9-1.71.65-1.94,1.24-.96,2.75,2.65,4.09,6.65,5.62,11.3,5.87.4,0,.8,0,1.19,0,1.39-.07,1.48-.23.89-1.5-.91-1.99-2.11-3.8-3.81-5.21Z"/>
      <path class="cls-3" d="m150.92,559.29c.23-.75-.57-.88-1.05-1.15-4.59-2.53-8.64-5.67-11.55-10.15-3.81-5.84-5.13-12.31-4.59-19.15.75-9.62,4.53-17.82,12.32-23.78,10.61-8.11,25.68-8.92,36.88-.1,3.14,2.48,5.9,5.35,8.58,8.31.52.57.94.91,1.79.49,4.02-1.95,8.21-3.31,12.7-3.63.33-.02.77,0,.88-.42.09-.34-.28-.52-.5-.72-2.6-2.6-5.19-5.2-7.84-7.75-.74-.72-.8-1.13.18-1.65,2.16-1.14,4.33-2.24,6.64-3.03,4.84-1.63,9.78-2.46,14.9-1.82.81.11,1.22.39,1.41,1.26.59,2.82,1.59,5.53,2.85,8.12,2.01,4.13,4.58,7.79,8.81,9.96.72.36,1.61,1.15,2.26.66.54-.41.17-1.5.04-2.28-.73-4.58-2.79-8.54-5.67-12.12-.76-.94-1.57-1.84-2.39-2.79.23-.11.33-.19.39-.17.28.12.56.24.83.38,4.26,2.15,8.02,5.02,11.77,7.94.97.75,1.58,1.44,1.5,2.8-.1,1.7,1.41,3.02,3.18,3.08,1.74.06,3.17-1.2,3.35-2.94.16-1.42-.54-2.37-1.68-3.07-1.29-.79-2.54-.76-3.67.24-.75.68-1.13.61-1.74-.17-.88-1.11-1.9-2.11-2.9-3.11-1.24-1.26-2.52-2.49-3.78-3.72,1.29.05,2.39.37,3.51.61,5.21,1.11,10.29.87,15.19-1.4.93-.43,1.05-.76.21-1.44-2.07-1.63-4.43-2.59-6.99-3.03-4.94-.86-9.71-.21-14.31,1.71-.98.41-1.78.37-2.72-.18-3.19-1.83-6.67-2.8-10.33-3.22-1.4-.17-2.82-.14-4.24-.38,2.11-1.25,4.36-2.08,6.38-3.36,4.4-2.79,8.26-6.08,10.6-10.88.51-1.03.26-1.33-.83-1.27-2.55.15-5.01.72-7.34,1.71-6.9,2.98-12.34,7.7-16.55,13.9-.34.51-.59,1.17-1.17,1.41-2.06.89-4.13,1.72-6.21,2.58-.04-.08-.09-.15-.13-.23.17-.25.33-.51.51-.75,2.35-3.15,4.16-6.57,5.22-10.38.52-1.89.81-3.81.63-5.77-.16-1.75-.29-1.82-1.76-.91-2.18,1.34-3.9,3.19-5.41,5.23-2.9,3.89-4.44,8.34-5.14,13.09-.16,1.05-.5,1.07-1.24.55-.76-.53-1.53-1.06-2.31-1.56-10.43-6.61-21.76-9.1-33.66-5.56-16.64,4.94-27.13,16.04-29.97,33.4-1.7,10.45.61,20.21,7.74,28.4,3.94,4.53,8.81,7.64,14.83,8.69.61.11,1.36.29,1.6-.48Z"/>
      <path class="cls-3" d="m264.36,558.54c-3.18.54-6.16-.22-8.9-1.86-.88-.53-2.05-1.25-1.32-2.51.72-1.24,1.85-.6,2.81-.1,2.26,1.2,4.64,1.37,7.09.74,1.21-.3,1.36-.72.72-1.76-.7-1.11-1.66-1.97-2.65-2.77-10.11-8.15-19.94-16.62-29.44-25.45-5.03-4.67-10.32-8.92-16.65-11.7-1.13-.5-2.19-.72-3.46-.53-7.37,1.08-14.23,3.57-20.64,7.32-.68.39-1.1.43-1.69-.19-10.87-11.15-27.41-12.02-39.24-6.38-1.83.88-1.94,1.23-.81,2.88,6.98,10.17,16.8,14.52,28.93,14.06,1.18-.05,2.46.09,3.8-.69-6.77-7.3-16.08-9.67-24.74-13.52.32-.13.43-.21.55-.21,4.89-.19,9.76-.03,14.48,1.38,7.71,2.32,13.81,6.69,17.43,14.11.5,1.03.41,1.52-.83,1.86-5.33,1.48-10.73,2.39-16.26,2.09-1.35-.08-2.09.39-2.76,1.49-8.29,13.45-14.01,27.81-15.52,43.65-.76,7.97-.34,15.92,1.11,23.81.2,1.08.54,1.17,1.46.67,2.68-1.47,5.51-2.63,8.43-3.56,5.08-1.63,10.32-2.52,15.6-3.13,5.15-.6,10.33-.86,15.51-.94.24,0,.55-.05.65.37-.42.13-.83.26-1.24.4-7.73,2.59-15.64,4.58-23.3,7.37-10.1,3.68-18.8,9.38-25.8,17.54,5.41.07,10.82.29,16.23.6,7.13-4.66,14.57-8.81,22.26-12.56,9.47-4.62,19.15-8.79,28.76-13.09,1.49-.68,1.48-.69.3-1.78-4.39-4.07-7.11-9-7.71-15.01-.11-1.03-.51-1.53-1.39-1.99-6.57-3.42-11.94-8.04-14.99-15.01-2.4-5.48-2.61-11.11-1.52-17.08.49.49.51.93.61,1.34,2.66,10.99,9.84,17.38,21.05,18.76,4.59.57,9.21.37,13.81.42,3.14.04,6.28.22,9.39.79.5.1,1.12.17.48.87-2.46,2.69-2.94,5.99-2.71,9.42.21,3.34,1.34,6.27,4.45,8.24-.5-2.74-.59-5.34.61-8.16.9,2.78,1.65,5.27,3.21,7.41,1.87,2.56,4.29,4.09,6.42,3.9-.98-1.23-1.59-2.61-1.97-4.07-1-3.93-1.16-7.74,1.73-11.05,1.18-1.33,2.44-2.23,4.5-1.85,2.46.44,4.95.07,7.3-.91,1.03-.43,2.02-.97,2.51-2.17-5.28.24-9.24-2.13-12.75-5.54,1.02-.09,1.87.38,2.77.67,4.11,1.28,8.24,2.12,12.56,1.35,1.01-.18,2.04-.38,2.52-1.47.83-1.94.86-3.87-.11-5.77-.34-.67-.76-.89-1.61-.74Zm-36.48-21.57c-1.47-.6-2.95-1.16-4.38-1.8-.6-.27-1.04-.24-1.59.08-1.77,1.03-3.69,1.17-5.65.76-1.63-.33-2.84-1.32-3.39-2.88-.41-1.21-1.14-1.74-2.37-1.88-1.13-.14-2.22-.47-3.67-.79,3.5-1.89,6.67-3.58,10.48-3.28,1.48.11,2.67.82,3.85,1.65,2.95,2.08,5.05,4.88,6.94,7.87-.07.1-.15.19-.22.28Z"/>
    </g>
  </g>
</svg>