<?xml version="1.0" encoding="UTF-8"?>
<svg id="Layer_1" data-name="Layer 1" xmlns="http://www.w3.org/2000/svg" viewBox="0 0 1080 1080">
  <defs>
    <style>
      .cls-1 {
        fill: none;
      }

      .cls-1, .cls-2, .cls-3 {
        stroke-width: 0px;
      }

      .cls-2 {
        fill: #fff;
      }

      .cls-3 {
        fill: #32534c;
      }
    </style>
  </defs>
  <path class="cls-3" d="m708.57,907.98c-32.21-7.16-64.42,0-96.63-3.58-103.79-7.16-207.58-21.47-311.37-21.47-13.46,0-26.92-3.16-40.38-6.52-1.71-.43-3.4-.97-5.03-1.66-15.51-6.6-28.36-15.86-41.01-25.32-2.04-1.52-3.91-3.27-5.55-5.22-20.36-24.09-37.16-48.44-44.04-79.4-7.07-35.34-3.67-67.19-3.58-99,0-.81.03-1.62.1-2.42l21.38-267.21c3.58-35.79,0-68,3.58-103.79,7.16-50.11,46.53-89.47,93.05-107.37,60.84-21.47,121.68-10.74,182.53-7.16,99.83,7.13,199.67,21.37,299.5,21.47.75,0,1.5.02,2.25.07,67.47,4.18,120.61,64.73,127.73,132.36,3.58,53.68,0,107.37-3.58,161.05-10.33,93.01-17.35,189.33-21.06,282.59-.3,7.56-1.4,15.05-3.36,22.36-2.46,9.2-5.32,18.4-9.53,27.6-1.03,2.26-2.44,4.32-3.92,6.31-.73.99-1.46,2.09-2.19,3.29-5.78,9.46-13.16,17.8-21.23,25.4-2.88,2.71-5.7,5.65-8.22,8.92-1.73,2.25-3.78,4.24-6.08,5.9-31.17,22.63-65.62,29.35-103.37,32.78h0Z"/>
  <g>
    <path class="cls-1" d="m619.55,493.77c-4.86-3.4-9.8-6.36-15.91-6.8-15.75-1.22-28.87,5.75-43.33,13.57,5.99,1.34,10.53,2.71,15.19,3.28,5.1.57,8.1,2.75,9.8,7.78,2.27,6.44,7.29,10.53,14.01,11.91,8.1,1.66,16.04,1.09,23.37-3.16,2.27-1.34,4.09-1.46,6.56-.32,5.91,2.67,12.03,4.98,18.1,7.45.28-.41.61-.77.89-1.17-7.81-12.35-16.48-23.93-28.67-32.52Z"/>
    <path class="cls-2" d="m772.59,872.72c8.06-8.71,16.24-17.41,22.31-27.74,1.46-2.43,2.71-4.9-.37-7.17-7.05-5.26-13.97-10.65-21.06-15.87-3.2-2.35-5.95-2.11-8.22,1.62-1.5,2.47-3.36,4.74-5.27,6.97-23.13,26.97-48.34,51.66-75.35,74.4,7.97.4,15.95,1.29,23.92,3.06,11.11-1.01,21.93-2.33,32.47-4.23,10.99-9.81,21.5-20.16,31.56-31.03Z"/>
    <path class="cls-2" d="m738.94,807.85c2.67-3,3.04-4.54-1.42-5.79-8.63-2.35-17.21-4.98-25.75-7.73-3.65-1.17-6.4-.73-9.52,1.74-16.04,12.8-32.24,25.39-48.43,37.94-30.03,23.31-60.78,45.59-92.53,66.42,16.88,1.45,33.76,2.81,50.65,3.98,6.54.73,13.09,1,19.63,1.05,22.72-17.46,44.52-36.06,65.5-55.65,14.46-13.53,28.63-27.29,41.87-41.95Z"/>
    <path class="cls-2" d="m637.13,790.96c-9.52.61-18.79,1.9-27.29,6.97-6.11,3.6-12.72,6.44-19.15,9.56-53.29,25.86-106.71,51.49-157.75,81.57,27.22,2.17,54.43,4.69,81.65,7.19,39.48-23.81,77.07-50.46,112.23-80.62,9.52-8.18,18.95-16.48,28.47-24.74-.24-.41-.45-.81-.69-1.21-5.83.45-11.62.93-17.45,1.3Z"/>
    <path class="cls-2" d="m597.85,380.14c-10.45-8.63-22.03-13-35.6-7.86-7.09,2.67-8.02,5.14-3.97,11.38,10.97,16.89,27.5,23.24,46.69,24.26,1.66,0,3.32.04,4.94-.04,5.75-.28,6.12-.93,3.69-6.2-3.77-8.22-8.71-15.71-15.75-21.54Z"/>
    <path class="cls-2" d="m329.24,619.75c.93-3.12-2.35-3.64-4.33-4.74-18.99-10.45-35.72-23.45-47.74-41.95-15.75-24.13-21.22-50.9-18.99-79.17,3.12-39.77,18.71-73.66,50.94-98.28,43.86-33.53,106.14-36.89,152.42-.4,13,10.25,24.38,22.11,35.47,34.34,2.15,2.35,3.89,3.77,7.41,2.02,16.6-8.06,33.93-13.69,52.48-15.02,1.38-.08,3.2.04,3.64-1.74.37-1.42-1.17-2.15-2.06-3-10.73-10.73-21.46-21.5-32.4-32.03-3.08-3-3.32-4.66.73-6.8,8.91-4.7,17.9-9.27,27.46-12.51,20-6.72,40.41-10.16,61.59-7.53,3.36.45,5.06,1.62,5.83,5.22,2.43,11.66,6.56,22.84,11.78,33.57,8.3,17.09,18.95,32.19,36.4,41.18,2.96,1.5,6.64,4.74,9.35,2.71,2.23-1.7.69-6.2.16-9.44-3-18.95-11.54-35.31-23.45-50.09-3.16-3.89-6.48-7.61-9.88-11.54.97-.45,1.38-.77,1.62-.69,1.17.49,2.31,1.01,3.44,1.58,17.62,8.87,33.17,20.73,48.63,32.8,4.01,3.12,6.52,5.95,6.2,11.58-.41,7.05,5.83,12.47,13.16,12.72,7.21.24,13.12-4.98,13.85-12.15.65-5.87-2.23-9.8-6.92-12.68-5.34-3.28-10.49-3.16-15.19,1.01-3.12,2.79-4.66,2.51-7.21-.69-3.65-4.58-7.86-8.71-11.99-12.84-5.14-5.22-10.41-10.29-15.63-15.39,5.35.2,9.88,1.54,14.5,2.51,21.54,4.58,42.52,3.6,62.81-5.79,3.85-1.78,4.33-3.16.85-5.95-8.54-6.72-18.3-10.69-28.87-12.51-20.41-3.56-40.13-.85-59.16,7.09-4.05,1.7-7.37,1.54-11.26-.73-13.2-7.57-27.58-11.58-42.68-13.32-5.79-.69-11.66-.57-17.53-1.58,8.71-5.18,18.02-8.59,26.36-13.89,18.18-11.54,34.14-25.15,43.82-44.99,2.1-4.25,1.09-5.51-3.44-5.26-10.53.61-20.69,2.96-30.33,7.09-28.51,12.31-51.02,31.83-68.4,57.46-1.42,2.11-2.43,4.82-4.82,5.83-8.5,3.68-17.09,7.13-25.68,10.65-.16-.32-.36-.61-.53-.93.69-1.05,1.38-2.11,2.11-3.12,9.72-13.04,17.21-27.17,21.58-42.92,2.15-7.82,3.36-15.75,2.59-23.85-.65-7.25-1.21-7.53-7.29-3.77-9.03,5.55-16.12,13.2-22.35,21.62-11.99,16.08-18.34,34.46-21.26,54.1-.65,4.33-2.07,4.41-5.14,2.27-3.16-2.19-6.32-4.37-9.56-6.44-43.13-27.33-89.94-37.62-139.14-23-68.76,20.41-112.13,66.29-123.88,138.05-7.05,43.21,2.51,83.54,31.99,117.4,16.28,18.71,36.41,31.59,61.31,35.92,2.51.45,5.63,1.21,6.6-1.98Z"/>
    <path class="cls-2" d="m798.14,616.63c-13.16,2.23-25.47-.89-36.77-7.69-3.65-2.19-8.46-5.18-5.47-10.37,3-5.14,7.65-2.47,11.62-.41,9.35,4.94,19.2,5.67,29.32,3.08,4.98-1.26,5.63-3,2.96-7.29-2.88-4.58-6.84-8.14-10.97-11.46-41.79-33.69-82.41-68.68-121.69-105.21-20.77-19.32-42.64-36.85-68.84-48.35-4.66-2.07-9.07-2.96-14.29-2.19-30.45,4.45-58.84,14.74-85.32,30.25-2.8,1.62-4.54,1.78-7.01-.77-44.95-46.08-113.31-49.69-162.18-26.36-7.57,3.64-8.02,5.1-3.36,11.91,28.83,42.03,69.45,60.01,119.58,58.11,4.86-.2,10.16.36,15.71-2.83-27.98-30.17-66.45-39.97-102.25-55.88,1.34-.53,1.78-.85,2.27-.85,20.21-.77,40.33-.12,59.85,5.71,31.87,9.6,57.1,27.66,72.04,58.31,2.07,4.25,1.7,6.28-3.44,7.69-22.03,6.11-44.34,9.88-67.22,8.63-5.59-.32-8.63,1.62-11.42,6.16-34.26,55.6-57.91,114.97-64.14,180.45-3.16,32.96-1.42,65.8,4.58,98.4.81,4.45,2.23,4.82,6.03,2.75,11.09-6.07,22.76-10.85,34.83-14.7,21.02-6.72,42.64-10.41,64.47-12.92,21.3-2.47,42.68-3.56,64.1-3.89,1.01-.04,2.27-.2,2.67,1.54-1.74.53-3.44,1.09-5.14,1.66-31.95,10.69-64.63,18.91-96.3,30.45-41.77,15.22-77.71,38.77-106.64,72.49,22.36.29,44.71,1.18,67.07,2.49,29.47-19.27,60.24-36.42,92.01-51.9,39.16-19.11,79.17-36.32,118.9-54.1,6.16-2.79,6.11-2.83,1.26-7.37-18.14-16.81-29.4-37.22-31.87-62.04-.44-4.25-2.11-6.32-5.75-8.22-27.17-14.13-49.36-33.25-61.96-62.04-9.92-22.64-10.77-45.92-6.28-70.58,2.02,2.02,2.11,3.85,2.51,5.55,11.01,45.44,40.66,71.84,87.02,77.55,18.99,2.35,38.07,1.54,57.1,1.74,13,.16,25.96.89,38.79,3.28,2.06.41,4.62.69,1.98,3.6-10.16,11.14-12.15,24.74-11.22,38.96.85,13.81,5.55,25.92,18.39,34.06-2.06-11.34-2.43-22.07,2.51-33.73,3.73,11.5,6.8,21.79,13.28,30.61,7.73,10.57,17.74,16.89,26.52,16.12-4.05-5.1-6.56-10.77-8.14-16.81-4.13-16.24-4.78-31.99,7.17-45.68,4.86-5.51,10.08-9.23,18.59-7.65,10.16,1.82,20.45.28,30.17-3.77,4.25-1.78,8.34-4.01,10.37-8.95-21.83.97-38.19-8.79-52.68-22.88,4.21-.36,7.73,1.58,11.46,2.75,16.97,5.3,34.06,8.75,51.92,5.59,4.17-.73,8.42-1.58,10.41-6.07,3.44-8.02,3.57-16-.44-23.85-1.42-2.75-3.16-3.69-6.64-3.08Zm-150.8-89.17c-6.07-2.47-12.19-4.78-18.1-7.45-2.47-1.13-4.29-1.01-6.56.32-7.33,4.25-15.27,4.82-23.37,3.16-6.72-1.38-11.74-5.47-14.01-11.91-1.7-5.02-4.7-7.21-9.8-7.78-4.66-.57-9.19-1.94-15.19-3.28,14.46-7.82,27.58-14.78,43.33-13.57,6.11.45,11.06,3.4,15.91,6.8,12.19,8.59,20.86,20.17,28.67,32.52-.28.41-.61.77-.89,1.17Z"/>
  </g>
</svg>