<?xml version="1.0" encoding="UTF-8"?>
<svg id="Layer_1" data-name="Layer 1" xmlns="http://www.w3.org/2000/svg" viewBox="0 0 1080 1080">
  <defs>
    <style>
      .cls-1 {
        fill: #fff;
      }

      .cls-1, .cls-2 {
        stroke-width: 0px;
      }

      .cls-2 {
        fill: #32534c;
      }
    </style>
  </defs>
  <rect class="cls-2" x="0" y="0" width="1080" height="1080"/>
  <g>
    <path class="cls-1" d="m783.34,612.18c-56.23-8.8-43.94-79.16-43.31-120.67-1.44-10.5,22.27-6.91,29.1-7.46,5.91-1.53,4.54,13.77,4.45,16.41-.4,11.36-1.75,22.68-1.7,34.05.02,3.41.14,6.84.71,10.21.73,4.32,2.28,7.06,5.86,9.71,5.46,4.02,13.37,8.97,20.42,6.99,3.57-1,6.1-3.83,7.8-7,4.78-8.88,5.27-20.13,5.83-29.98.59-10.32.3-20.8,1.71-31.06.11-.78.23-1.56.37-2.34,4.14-6.94,15.99-5.45,23.25-6.41,4.75.78,4.74,8.27,4.82,11.81.2,8.41.45,16.77.77,25.17.21,5.46.22,10.94,0,16.4-.44,11.29-1.76,22.63-4.75,33.55-2.72,9.95-6.9,19.85-13.8,27.65-6.77,7.66-15.96,12.38-26.12,13.5-5.13.56-10.34.28-15.42-.54Z"/>
    <path class="cls-1" d="m155.72,491.28c.67.02,1.34.04,2.01.06,4.08.16,14.17-.74,13.1,5.76-.18,13.33-3.22,27.15-1.18,40.28,7.32,8.6,17.2-35.84,20.8-41.28,3.08-7.41,20.95-1.29,28.19-2.59,8.84.13,4.4,11.73,2.65,16.45-1.83,4.92-3.4,9.93-5.32,14.81-1.85,4.72-4.46,8.77-7,13.13-1.74,2.99-3.7,7.23-2.12,10.64.15,2,1.95,3.32,2.41,5.32.2.25.4.5.59.75,5.75,13.74,13.99,26.69,18.45,41.14,1.45,4.36-5.8,6.68-8.67,7.69-6.09,2.14-12.31,3.76-18.33,6.11-2.95,1.15-9.12,5.2-10.96.56-4.6-13.69-8.51-27.87-15.62-40.48-3.58-4.39-3.9,7.68-3.95,9.11-.13,3.91-.06,7.83.02,11.74.1,4.41.8,9.26.15,13.61-.83,5.51-6.73,6.26-11.33,6.21-6.24-.06-12.39.03-18.64.2-3.62.1-8.9-.51-8.62-5.29.18-3.05.83-6.07,1.01-9.14.21-3.68.27-7.37.59-11.05.58-6.56.91-13.08,1.23-19.65.5-10.37.32-20.76-.02-31.13-.33-9.98-.38-20.07-1.39-30.02-.26-2.57-.45-5.21-.23-7.79.33-3.78.86-5.67,5.06-5.43,5.7.32,11.41.15,17.11.29Z"/>
    <path class="cls-1" d="m560.22,490.46c4.95,0,12.75-1.57,14.37,4.86.77,3.06,2.15,6.07,3.11,9.09.99,3.11,1.91,6.23,2.78,9.38,1.71,6.19,3.25,12.43,4.59,18.71s2.23,12.42,3.7,18.55c1,4.2,2.05,8.38,3.08,12.57,3.1,12.65,7.71,26.73,6.79,39.89-.14,2.04-.73,3.94-2.74,4.84-1.05.47-2.21.61-3.35.75-5.44.66-10.88,1.31-16.32,1.97-4.12.5-10.35,2.31-14.07-.37-2.53-1.82-2.81-5.65-3.12-8.46-.77-6.94-1.18-13.97-1.72-20.92-.12-1.49-.6-3.1-1.86-3.9-.81-.51-1.8-.61-2.75-.69-3.76-.33-7.54-.81-11.3-1.04-2.62-.16-5.54.5-6.46,3.3-2.05,7.4-4.31,14.74-6.22,22.17-.66,2.58-1.15,6.6-4.02,7.71-1.44.56-3.13.47-4.64.42-7.68-.25-15.31-1.22-22.95-2.03-3.68-.39-3.76-2.93-3.6-6.09.1-1.88.43-3.71.7-5.57.84-5.75,2.17-11.44,3.57-17.08,1.75-7.04,3.69-14.03,5.7-21.01,2.1-7.29,4.27-14.56,6.47-21.82,1.97-6.5,3.96-13,5.9-19.51,1.39-4.68,2.8-9.36,3.98-14.09.36-1.44.49-2.98.89-4.39,1.34-4.76,1.59-4.99,6.43-5.22,10.94-.5,21.82-1.92,33.07-2.02Zm-15.06,27.42c-8.6-1.39-9.7,8.8-10.19,15-.3,3.9-.28,7.8-1.17,11.63-.15.66-.33,1.34-.22,2.01.81,4.89,13.64.69,16.12-.47,1.03-.48,2.06-1.06,2.76-1.96,1.37-1.78.24-3.76-.01-5.69-.21-1.61-.35-3.24-.51-4.85-.36-3.56-.69-7.2-1.7-10.65-.67-2.29-2.07-5.77-5.08-5.01Z"/>
    <path class="cls-1" d="m897.44,610.62c-5.37.68-41.61,3.51-38.91-4.51-.52-36.61.44-73.21,1.28-109.8-.85-12.06,58.53-11.89,67.39-7.98,10.52,3.3,17.73,11.8,20.43,22.34,2.75,10.72,1.34,22.44-2.65,32.66-1.72,4.43-3.99,8.66-6.84,12.47-6.62,8.82-18.22,13.55-28.93,14.63-4.74.48-11.27,1.09-10.67,7.45-.99,10.9.26,21.86-1.12,32.74Zm-6.63-91.17c.04,5.2,1.04,10.41,1.75,15.55.39,2.82,1.23,8.78,5.24,8.49,6.51-1.26,11.7-3.87,14.82-10.41,2.76-5.1,2.33-10.83-1.81-15.02-4.26-4.31-11.87-7.6-17.95-6.06-.45.11-.91.27-1.21.61-.3.35-.39.82-.46,1.28-.28,1.85-.39,3.71-.37,5.57Z"/>
    <path class="cls-1" d="m250.4,499.21c2.3-7.32,8.79-9.74,15.9-9.92,3.47-.09,6.92.33,10.38.37,5.45.07,10.88-.64,16.33-.5,5.48.14,7.95,2.43,9.38,7.56,7.06,25.41,16.08,50.27,23.92,75.45.52,1.66,1.03,3.32,1.55,4.98,2.22,7.18,4.32,14.4,6.53,21.58,1.17,3.8.46,4.92-3.5,5.55-4.37.69-8.95.69-13.36,1.18-3.29.37-6.56.79-9.85,1.19-3.44.42-7.84,1.39-11.2.05-2.8-1.12-3.57-4.27-4.06-6.96-1.11-6.15-1.14-12.45-1.94-18.65-.18-1.42-.07-2.9-.51-4.28-.37-1.17-1.16-2.28-2.31-2.72-1.87-.7-4.19.28-6.14.19-1.77-.08-3.55-.15-5.32-.17-2.64-.02-6.71.06-7.45,3.28-.53,7.48-1.21,14.95-1.78,22.43-.47,6.23-1.23,7.29-7.58,7.58-6.83-1.27-29.98,5.2-27.37-6.28,4.47-34.32,7.95-68.74,18.38-101.91Zm36.01,24.57c-1.37-4.31-3.55-8.18-7.67-7.95-3.82.22-6.88,2.72-7.97,6.31-2.32,7.66-4.32,16.6-4.08,24.64.06,2.01.28,3.09,2.53,3.13,5.72.09,11.46-.36,17.1-1.33,7.81-1.34,3.6-11.1,2.32-15.71-.6-2.15-1.17-5.75-2.23-9.09Z"/>
    <path class="cls-1" d="m706.98,611.09c-31.87,2.31-56.99-8.19-65.09-40.98-4.92-36.95,7.18-76.18,48.61-82.57,39.1-4.7,33.51-5.75,30.15,31.76.19,3.12-2.87,4.28-5.43,4.79-4.24.85-8.66.76-12.96.98-5.34.28-10.81.6-15.68,3.08-6.2,3.16-9.56,9.27-8.89,16.18.42,4.34,2.09,8.58,4.63,12.12,1.19,1.66,2.59,3.19,4.2,4.46.77.61,1.59,1.17,2.45,1.64.81.45,1.9.66,2.65,1.16,3.61,2.43,7.97,3.2,12.23,3.52,4.71.36,9.44.65,14.17.47.41-.02.85-.03,1.21.16.29.15.51.41.7.68,4.15,5.65,3.07,15.24,2.01,21.68-1.05,6.41-3.03,14.43-8.22,18.84-2.23,1.89-4.04,1.83-6.73,2.02Z"/>
    <path class="cls-1" d="m459.88,492.78c6.76-.21,13.51-.44,20.27-.6,3.38-.08,6.76-.14,10.14-.17,2.37-.02,5.11.35,6.33,2.69.9,1.73.88,3.9.81,5.8-.13,3.52-.68,7.03-1.23,10.5-.26,1.68-.54,3.35-.82,5.03-.83,4.54-.86,4.56-5.37,4.86-9.52.63-19.06.61-28.59.63-5.92.01-6.66.81-6.33,6.76,1.17,3.4-1.89,14.43,4.47,14.01,29.75-1.97,26.76-6.43,23.17,24.19-1.12,10.53-24.09-2.34-23.87,7.42,4.18,38.48,4.03,31.91-33,33.86-3.5.02-3.88-.86-3.57-4.31,3.08-33.36,1.37-66.89.52-100.31.17-3.92-1.58-10.67,4.41-10.19,5.61-.03,11.23-.04,16.84-.03,2.77,0,5.55,0,8.32,0,2.5,0,5.01-.07,7.51-.14Z"/>
    <path class="cls-1" d="m342.98,493.4c.19-.1.41-.18.65-.23,5.99-1.29,12.27-.59,18.35-.52,9.84.1,19.95.14,29.89.09,5.04-.03,10.15-.34,15.19-.14,3.12.12,6.59,1.19,6.67,4.89-1.86,6.67,2.04,21.94-6.51,23.55-10.34.69-20.69.67-31.04.33-3.02-.1-4.11.35-3.9,3.65.23,3.73-.39,7.42-.21,11.12.13,2.78.78,4.52,3.51,5.3,5.53,1.58,26.22-2.7,25.19,5.14-1.68,21.45,4.08,26.6-21.72,23.6-2.7-.14-3.69.71-3.54,3.38.8,39.64,11.31,33.13-30.33,34.6-2.47.04-3.53-.61-3.86-3.31-1.24-14.49-1.11-29.14-1.06-43.68.06-15.81.35-31.63.76-47.43.11-4.36.24-8.71.37-13.07.07-2.2-.57-6.14,1.6-7.26Z"/>
  </g>
</svg>